# xmcd CD database file
#
# Track frame offsets:
#	150
#	41943
#	65955
#	72767
#	119300
#	148985
#	184851
#
# Disc length: 2572 seconds
#
# Revision: 0
# Processed by: cddbd v1.5.2PL0 Copyright (c) Steve Scherf et al.
# Submitted via: CDex 1.70beta2
#
DISCID=740a0a07
DTITLE=Mark O'Leary - Signs
DYEAR=2007
DGENRE=Jazz
TTITLE0=Tilt
TTITLE1=Falling
TTITLE2=Skrakk
TTITLE3=Signs
TTITLE4=Want To Know A Secret
TTITLE5=Bye For a While
TTITLE6=Headphase
EXTD=YEAR: 2007
EXTT0=
EXTT1=
EXTT2=
EXTT3=
EXTT4=
EXTT5=
EXTT6=
PLAYORDER=
